<?xml version="1.0" encoding="UTF-8" standalone="no" ?>
<!DOCTYPE svg PUBLIC "-//W3C//DTD SVG 1.1//EN" "http://www.w3.org/Graphics/SVG/1.1/DTD/svg11.dtd">
<svg xmlns="http://www.w3.org/2000/svg" xmlns:xlink="http://www.w3.org/1999/xlink" version="1.1" width="150" height="150" viewBox="17.14 17.14 150 150" xml:space="preserve">
<desc>Created with Fabric.js 5.2.4</desc>
<defs>
</defs>
<rect x="0" y="0" width="100%" height="100%" fill="transparent"></rect>
<g transform="matrix(1 0 0 1 75 75)" id="1ec93cdc-d9d6-4d08-ab91-cacd93ecfa44"  >
<rect style="stroke: none; stroke-width: 1; stroke-dasharray: none; stroke-linecap: butt; stroke-dashoffset: 0; stroke-linejoin: miter; stroke-miterlimit: 4; fill: rgb(255,255,255); fill-rule: nonzero; opacity: 1; visibility: hidden;" vector-effect="non-scaling-stroke"  x="-75" y="-75" rx="0" ry="0" width="150" height="150" />
</g>
<g transform="matrix(Infinity NaN NaN Infinity 0 0)" id="14d2d363-3de6-4ac0-8974-84aac65caeca"  >
</g>
<g transform="matrix(4.69 0 0 4.69 92.14 92.14)"  >
<g style=""   >
		<g transform="matrix(1 0 0 1 0 0)"  >
<path style="stroke: none; stroke-width: 1; stroke-dasharray: none; stroke-linecap: butt; stroke-dashoffset: 0; stroke-linejoin: miter; stroke-miterlimit: 4; fill: rgb(0,0,0); fill-rule: nonzero; opacity: 1;" vector-effect="non-scaling-stroke"  transform=" translate(-16, -16)" d="M 30 0 L 2 0 C 0.8954305003384131 0 0 0.8954305003384131 0 2 L 0 30 C 0 31.1 0.9 32 2 32 L 30 32 C 31.104569499661586 32 32 31.104569499661586 32 30 L 32 2 C 32 0.8954305003384131 31.104569499661586 0 30 0 z" stroke-linecap="round" />
</g>
		<g transform="matrix(1 0 0 1 0 0)"  >
<path style="stroke: none; stroke-width: 1; stroke-dasharray: none; stroke-linecap: butt; stroke-dashoffset: 0; stroke-linejoin: miter; stroke-miterlimit: 4; fill: rgb(255,255,255); fill-rule: nonzero; opacity: 1;" vector-effect="non-scaling-stroke"  transform=" translate(-16, -16)" d="M 15.71 4 L 16.96 4 C 19.36 4 19.810000000000002 4.02 20.950000000000003 4.07 C 22.230000000000004 4.13 23.1 4.33 23.860000000000003 4.630000000000001 C 24.650000000000002 4.930000000000001 25.320000000000004 5.3500000000000005 25.990000000000002 6.010000000000001 C 26.590000000000003 6.61 27.07 7.340000000000001 27.37 8.14 L 27.39 8.200000000000001 C 27.67 8.940000000000001 27.87 9.780000000000001 27.93 11 L 27.94 11.4 C 27.990000000000002 12.42 28 13.030000000000001 28 15.8 L 28 16.720000000000002 C 28 19.320000000000004 27.98 19.770000000000003 27.93 20.950000000000003 C 27.90955943496407 21.944722697837708 27.720196161245223 22.928735423769584 27.37 23.860000000000003 C 27.07 24.660000000000004 26.6 25.390000000000004 25.990000000000002 25.990000000000002 C 25.3889235676626 26.59957016365148 24.661992576995722 27.07053953788636 23.860000000000003 27.37 L 23.800000000000004 27.39 C 23.060000000000006 27.67 22.210000000000004 27.87 21.000000000000004 27.92 L 20.600000000000005 27.94 C 19.580000000000005 27.990000000000002 18.970000000000006 28 16.200000000000003 28 L 15.280000000000003 28 C 13.86961995164281 28.017481169170022 12.459029375489221 27.994138062708874 11.049999999999999 27.93000000000002 C 10.055277302162297 27.90955943496407 9.071264576230421 27.72019616124522 8.14 27.369999999999997 C 7.3400000000000025 27.07 6.610000000000002 26.6 6.0100000000000025 25.990000000000002 C 5.400429836348524 25.3889235676626 4.929460462113642 24.661992576995722 4.630000000000002 23.860000000000003 L 4.610000000000003 23.800000000000004 C 4.279657405433475 22.90204031660102 4.097285164269339 21.956406473527732 4.070000000000002 21.000000000000004 L 4.060000000000003 20.630000000000003 C 4.002952170615483 19.18408279302448 3.9829456111949213 17.736941661604895 3.9999999999999867 16.290000000000028 L 4 15.29 C 4 12.669999999999998 4.02 12.229999999999999 4.07 11.049999999999999 C 4.13 9.79 4.33 8.919999999999998 4.62 8.169999999999998 L 4.63 8.139999999999999 C 4.93 7.339999999999999 5.4 6.6099999999999985 6.01 6.009999999999999 C 6.611076432337399 5.40042983634852 7.3380074230042815 4.92946046211364 8.14 4.630000000000001 L 8.200000000000001 4.609999999999999 C 9.097959683398983 4.27965740543347 10.043593526472268 4.097285164269338 10.999999999999995 4.07 L 11.37 4.06 C 12.39 4 12.99 4 15.71 4 z M 16.62 6.16 L 15.38 6.16 C 13.080000000000002 6.16 12.47 6.17 11.57 6.21 L 11.15 6.2299999999999995 C 9.98 6.279999999999999 9.35 6.4799999999999995 8.92 6.64 C 8.36 6.859999999999999 7.96 7.119999999999999 7.54 7.54 C 7.14 7.95 6.87 8.34 6.66 8.89 L 6.63 8.950000000000001 C 6.374372176324093 9.655749406566608 6.239156148150798 10.399437561519743 6.23 11.150000000000007 L 6.21 11.600000000000001 C 6.17 12.500000000000002 6.16 13.13 6.16 15.540000000000001 L 6.16 16.62 C 6.16 19.26 6.18 19.67 6.23 20.85 L 6.23 20.92 C 6.29 22.05 6.48 22.66 6.65 23.080000000000002 C 6.86 23.64 7.12 24.040000000000003 7.550000000000001 24.46 C 7.950000000000001 24.86 8.350000000000001 25.130000000000003 8.89 25.34 L 8.950000000000001 25.37 C 9.655749406566606 25.625627823675906 10.399437561519738 25.760843851849202 11.15 25.77 L 11.600000000000001 25.79 C 12.500000000000002 25.83 13.13 25.84 15.540000000000001 25.84 L 16.62 25.84 C 19.26 25.84 19.67 25.82 20.85 25.77 L 20.92 25.77 C 21.65861612202446 25.753579909018786 22.389048304818573 25.61155142903104 23.080000000000005 25.349999999999998 C 23.6 25.159999999999997 24.07 24.849999999999998 24.46 24.45 C 24.86 24.05 25.130000000000003 23.65 25.34 23.11 L 25.37 23.05 C 25.625627823675906 22.344250593433394 25.760843851849202 21.60056243848026 25.77 20.85 L 25.79 20.400000000000002 C 25.83 19.500000000000004 25.84 18.87 25.84 16.46 L 25.84 15.370000000000001 C 25.84 12.740000000000002 25.82 12.330000000000002 25.77 11.150000000000002 L 25.77 11.080000000000002 C 25.753579909018786 10.341383877975549 25.61155142903104 9.610951695181432 25.349999999999998 8.920000000000002 C 25.159999999999997 8.400000000000002 24.849999999999998 7.9300000000000015 24.45 7.540000000000002 C 24.07301159415382 7.15226374933793 23.61561001307842 6.851880621467519 23.11 6.660000000000002 L 23.05 6.630000000000002 C 22.357251497493227 6.3774852658253325 21.627233320944203 6.242296714612552 20.89 6.230000000000002 L 20.43 6.210000000000002 C 19.53 6.170000000000002 18.93 6.160000000000002 16.63 6.160000000000002 z M 16 9.84 C 19.402074058957687 9.84 22.16 12.59792594104231 22.16 15.999999999999998 C 22.16 19.402074058957687 19.40207405895769 22.159999999999997 16.000000000000004 22.16 C 12.597925941042313 22.16 9.84 19.402074058957687 9.84 16 C 9.84 12.597925941042313 12.597925941042313 9.84 16 9.84 z M 16 12 C 13.790861000676827 12 12 13.790861000676827 12 16 C 12 18.209138999323173 13.790861000676827 20 16 20 C 18.209138999323173 20 20 18.209138999323173 20 16 C 20 13.790861000676827 18.209138999323173 12 16 12 z M 22.4 8.15 C 23.19529003975634 8.15 23.84 8.794709960243658 23.84 9.59 C 23.84 10.385290039756343 23.19529003975634 11.030000000000001 22.4 11.030000000000001 C 21.604709974242635 11.029999980202458 20.960000035846623 10.385290025757367 20.960000035846623 9.590000000000002 C 20.960000035846623 8.794709974242636 21.60470997424263 8.150000019797545 22.4 8.150000000000002 z" stroke-linecap="round" />
</g>
</g>
</g>
</svg>