<?xml version="1.0" encoding="UTF-8" standalone="no" ?>
<!DOCTYPE svg PUBLIC "-//W3C//DTD SVG 1.1//EN" "http://www.w3.org/Graphics/SVG/1.1/DTD/svg11.dtd">
<svg xmlns="http://www.w3.org/2000/svg" xmlns:xlink="http://www.w3.org/1999/xlink" version="1.1" width="150" height="150" viewBox="17.14 17.14 150 150" xml:space="preserve">
<desc>Created with Fabric.js 5.2.4</desc>
<defs>
</defs>
<rect x="0" y="0" width="100%" height="100%" fill="transparent"></rect>
<g transform="matrix(1 0 0 1 75 75)" id="1ec93cdc-d9d6-4d08-ab91-cacd93ecfa44"  >
<rect style="stroke: none; stroke-width: 1; stroke-dasharray: none; stroke-linecap: butt; stroke-dashoffset: 0; stroke-linejoin: miter; stroke-miterlimit: 4; fill: rgb(255,255,255); fill-rule: nonzero; opacity: 1; visibility: hidden;" vector-effect="non-scaling-stroke"  x="-75" y="-75" rx="0" ry="0" width="150" height="150" />
</g>
<g transform="matrix(Infinity NaN NaN Infinity 0 0)" id="14d2d363-3de6-4ac0-8974-84aac65caeca"  >
</g>
<g transform="matrix(4.69 0 0 4.69 96.43 97.86)"  >
<g style=""   >
		<g transform="matrix(1 0 0 1 0 0)"  >
<path style="stroke: none; stroke-width: 1; stroke-dasharray: none; stroke-linecap: butt; stroke-dashoffset: 0; stroke-linejoin: miter; stroke-miterlimit: 4; fill: rgb(0,0,0); fill-rule: nonzero; opacity: 1;" vector-effect="non-scaling-stroke"  transform=" translate(-16, -16)" d="M 30 0 C 31.104569499661586 0 32 0.8954305003384126 32 1.9999999999999996 L 32 30 C 32 31.104569499661586 31.104569499661586 32 30 32 L 2 32 C 0.8954305003384131 32 0 31.104569499661586 0 30 L 0 2 C 0 0.8954305003384131 0.8954305003384131 0 2 0 z" stroke-linecap="round" />
</g>
		<g transform="matrix(1 0 0 1 0.28 3.13)"  >
<path style="stroke: none; stroke-width: 1; stroke-dasharray: none; stroke-linecap: butt; stroke-dashoffset: 0; stroke-linejoin: miter; stroke-miterlimit: 4; fill: rgb(255,255,255); fill-rule: nonzero; opacity: 1;" vector-effect="non-scaling-stroke"  transform=" translate(-16.28, -19.13)" d="M 22.94 16 L 18.5 16 L 18.5 13 C 18.5 11.73 19.12 10.5 21.1 10.5 L 23.12 10.5 L 23.12 6.56 C 23.12 6.56 21.29 6.25 19.54 6.25 C 15.889999999999999 6.25 13.5 8.46 13.5 12.469999999999999 L 13.5 16 L 9.44 16 L 9.44 20.62 L 13.5 20.62 L 13.5 32 L 18.5 32 L 18.5 20.62 L 22.23 20.62 z" stroke-linecap="round" />
</g>
</g>
</g>
</svg>