<?xml version="1.0" encoding="UTF-8" standalone="no" ?>
<!DOCTYPE svg PUBLIC "-//W3C//DTD SVG 1.1//EN" "http://www.w3.org/Graphics/SVG/1.1/DTD/svg11.dtd">
<svg xmlns="http://www.w3.org/2000/svg" xmlns:xlink="http://www.w3.org/1999/xlink" version="1.1" width="150" height="150" viewBox="17.14 17.14 150 150" xml:space="preserve">
<desc>Created with Fabric.js 5.2.4</desc>
<defs>
</defs>
<rect x="0" y="0" width="100%" height="100%" fill="transparent"></rect>
<g transform="matrix(1 0 0 1 75 75)" id="1ec93cdc-d9d6-4d08-ab91-cacd93ecfa44"  >
<rect style="stroke: none; stroke-width: 1; stroke-dasharray: none; stroke-linecap: butt; stroke-dashoffset: 0; stroke-linejoin: miter; stroke-miterlimit: 4; fill: rgb(255,255,255); fill-rule: nonzero; opacity: 1; visibility: hidden;" vector-effect="non-scaling-stroke"  x="-75" y="-75" rx="0" ry="0" width="150" height="150" />
</g>
<g transform="matrix(Infinity NaN NaN Infinity 0 0)" id="14d2d363-3de6-4ac0-8974-84aac65caeca"  >
</g>
<g transform="matrix(4.69 0 0 4.69 93.57 99.29)"  >
<g style=""   >
		<g transform="matrix(1 0 0 1 0 0)"  >
<path style="stroke: none; stroke-width: 1; stroke-dasharray: none; stroke-linecap: butt; stroke-dashoffset: 0; stroke-linejoin: miter; stroke-miterlimit: 4; fill: rgb(0,0,0); fill-rule: nonzero; opacity: 1;" vector-effect="non-scaling-stroke"  transform=" translate(-16, -16)" d="M 32 4 L 32 28 C 32 30.209138999323173 30.209138999323173 32 28 32 L 4 32 C 1.7908610006768262 32 0 30.209138999323173 0 28 L 0 4 C 0 1.7908610006768262 1.7908610006768262 0 4 0 L 28 0 C 30.209138999323173 0 32 1.7908610006768253 32 3.999999999999999 z" stroke-linecap="round" />
</g>
		<g transform="matrix(1 0 0 1 0.55 0.27)"  >
<path style="stroke: none; stroke-width: 1; stroke-dasharray: none; stroke-linecap: butt; stroke-dashoffset: 0; stroke-linejoin: miter; stroke-miterlimit: 4; fill: rgb(255,255,255); fill-rule: nonzero; opacity: 1;" vector-effect="non-scaling-stroke"  transform=" translate(-16.55, -16.27)" d="M 18.66 7.99 C 16.902890117359583 8.931997129137393 15.97506549316283 10.91786737741816 16.38 12.87 C 12.828188958542011 12.713455672240782 9.517505810907153 11.028945083906748 7.300000000000001 8.250000000000002 C 6.697648950112005 9.211248966029514 6.504579609929267 10.373412513056206 6.7637699367741035 11.47778868830812 C 7.022960263618941 12.582164863560033 7.712897846975763 13.53709209179683 8.680000000000001 14.13 C 7.99 14.129999999999999 7.3 13.999999999999998 6.68 13.69 C 6.729878167186979 15.755763260278545 8.168440208486892 17.527249659707866 10.18 18 C 9.52732609632919 18.176988162163823 8.842109887988144 18.197544648414056 8.18 18.06 C 8.79962121122761 19.86606085480189 10.462360710448655 21.108155039184197 12.370000000000003 21.189999999999998 C 10.538264124831345 22.70253127578895 8.147901257983815 23.361063511556683 5.799999999999999 23 C 9.743194376533076 25.633338374468075 14.840472965232763 25.796048427617027 18.943585978667386 23.41955595244449 C 23.046698992102005 21.043063477271954 25.442004428303466 16.540704602247025 25.12 11.809999999999999 C 25.998924487146002 11.19942555261909 26.74130114674189 10.412778725249138 27.299999999999997 9.5 C 26.51143621312486 9.880283392599026 25.667672551941095 10.133412490954155 24.8 10.25 C 25.738695658347055 9.676404462135006 26.44644974172009 8.791711857918711 26.8 7.750000000000001 C 25.93 8.25 24.990000000000002 8.62 23.990000000000002 8.81 C 22.592775560573124 7.376334322094699 20.416465145570843 7.03806884560558 18.650000000000002 7.98 z" stroke-linecap="round" />
</g>
</g>
</g>
</svg>